<?xml version="1.0" standalone="no"?><!DOCTYPE svg PUBLIC "-//W3C//DTD SVG 1.1//EN" "http://www.w3.org/Graphics/SVG/1.1/DTD/svg11.dtd"><svg t="1570784794410" class="icon" viewBox="0 0 1024 1024" version="1.1" xmlns="http://www.w3.org/2000/svg" p-id="4282" xmlns:xlink="http://www.w3.org/1999/xlink" width="200" height="200"><defs><style type="text/css"></style></defs><path d="M512.9 960.8c-60.5 0-119.2-11.9-174.5-35.2-53.4-22.6-101.3-54.9-142.5-96-41.2-41.2-73.5-89.1-96.1-142.5-23.4-55.3-35.2-114-35.2-174.5s11.9-119.2 35.2-174.5c22.6-53.4 54.9-101.3 96.1-142.5 41.2-41.2 89.1-73.5 142.5-96.1 55.3-23.4 114-35.2 174.5-35.2s119.2 11.9 174.5 35.2c53.4 22.6 101.3 54.9 142.5 96.1 41.2 41.2 73.5 89.1 96.1 142.5 23.4 55.3 35.2 114 35.2 174.5S949.3 631.8 926 687.1c-22.6 53.4-54.9 101.3-96.1 142.5-41.2 41.2-89.1 73.5-142.5 96.1-55.3 23.3-114 35.1-174.5 35.1z m67.8-847.2c-275.8-45.1-511.9 191-466.8 466.8C139.4 736.4 289.1 886 445 911.5c275.8 45.1 511.9-191 466.8-466.8-25.5-155.9-175.2-305.6-331.1-331.1z" p-id="4283"></path><path d="M510.3 865.7c-86.3 0-167.4-34.3-228.4-96.5-54.1-55.1-86.6-126.4-93.3-203.1-1.4-16 11-29.8 26.7-29.8 13.8 0 25.5 10.7 26.7 24.8C254.4 701 370 811 510.3 811s256-110 268.3-249.9c1.2-14.1 12.9-24.8 26.7-24.8 15.8 0 28.1 13.8 26.7 29.8-6.7 76.7-39.2 148-93.3 203.1-61 62.3-142.1 96.5-228.4 96.5zM710.6 473c-64.1 3-117-49.9-114-114 2.6-55.9 47.9-101.2 103.8-103.8 64.1-2.9 117 49.9 114 114-2.6 55.9-47.9 101.2-103.8 103.8z m-0.7-176.3c-40.7-2.6-74.4 31.1-71.8 71.8 2.2 33.6 29.3 60.8 63 63 40.7 2.6 74.4-31.1 71.8-71.8-2.2-33.7-29.4-60.9-63-63zM265.7 464.2c-7.7-9.7-5.7-24.6 4.2-31.4l72.1-50c11.7-8.1 11.8-26.9 0.3-35.2l-78.2-56.3c-9.8-7-11.5-22-3.7-31.5l0.1-0.1c6.2-7.6 16.5-9 24.3-3.4l127.8 92c11.6 8.3 11.4 27.1-0.3 35.2L290 468.1c-7.9 5.5-18.1 3.8-24.3-3.9z" p-id="4284"></path></svg>