<?xml version="1.0" standalone="no"?><!DOCTYPE svg PUBLIC "-//W3C//DTD SVG 1.1//EN" "http://www.w3.org/Graphics/SVG/1.1/DTD/svg11.dtd"><svg t="1570699132920" class="icon" viewBox="0 0 1024 1024" version="1.1" xmlns="http://www.w3.org/2000/svg" p-id="3080" xmlns:xlink="http://www.w3.org/1999/xlink" width="200" height="200"><defs><style type="text/css"></style></defs><path d="M881.777778 213.333333H142.222222a85.333333 85.333333 0 0 0-85.333333 85.333334v426.666666a85.333333 85.333333 0 0 0 85.333333 85.333334h739.555556a85.333333 85.333333 0 0 0 85.333333-85.333334v-426.666666a85.333333 85.333333 0 0 0-85.333333-85.333334z m-711.111111 56.888889h682.666666a56.149333 56.149333 0 0 1 22.954667 4.835556L535.751111 578.275556a35.982222 35.982222 0 0 1-21.589333 6.826666 34.645333 34.645333 0 0 1-21.930667-7.68L157.041778 271.928889A71.111111 71.111111 0 0 1 170.666667 270.222222z m-56.888889 56.888889a56.234667 56.234667 0 0 1 2.645333-16.213333l223.744 203.662222-223.687111 198.826667A57.884444 57.884444 0 0 1 113.777778 696.888889v-369.777778z m739.555555 426.666667H170.666667a54.613333 54.613333 0 0 1-11.889778-1.422222l224-198.826667 72.988444 66.56a93.866667 93.866667 0 0 0 115.939556 1.137778l72.789333-64.853334 220.728889 195.982223a54.613333 54.613333 0 0 1-11.889778 1.422222z m56.888889-56.888889a57.884444 57.884444 0 0 1-2.702222 16.497778l-219.904-195.413334 221.866667-197.404444a50.915556 50.915556 0 0 1 0.654222 6.542222v369.777778z" fill="#364C58" p-id="3081"></path></svg>